<?xml version="1.0" encoding="utf-8"?>
<!-- Generator: Adobe Illustrator 16.0.5, SVG Export Plug-In . SVG Version: 6.00 Build 0)  -->
<!DOCTYPE svg PUBLIC "-//W3C//DTD SVG 1.1//EN" "http://www.w3.org/Graphics/SVG/1.1/DTD/svg11.dtd">
<svg version="1.1" id="Layer_1" xmlns="http://www.w3.org/2000/svg" xmlns:xlink="http://www.w3.org/1999/xlink" x="0px" y="0px"
	 width="260px" height="89px" viewBox="0 0 260 89" enable-background="new 0 0 260 89" xml:space="preserve">
<path fill="#E87427" d="M84.825,70.958c-0.609-1.618-1.218-3.236-1.827-4.854c-0.639-1.697-1.277-3.395-1.916-5.092
	c-0.555-1.615-1.109-3.231-1.664-4.848c-1.89-4.602-3.567-9.615-5.489-14.207c-0.666-1.59-2.176-7.493-3.161-8.19
	c-0.86-0.608-10.146-0.432-11.478-0.083c-1.697,2.869-2.12,6.521-3.41,9.777c-2.009,5.071-4.138,10.736-5.739,15.963
	c-0.568,1.854-2.883,9.968-3.909,10.613c-1.565-0.976-0.378-7.631-0.749-10.112V32.013c0-3.658-0.685-10.048,0.333-12.953
	c1.414-0.925,10.681-0.622,13.391-0.502c1.21,0.054,2.594,0.176,3.41-0.334c0.437-1.747,0.599-6.648-0.25-7.939
	c-3.319-0.601-7.134,0.391-10.479-0.084c-9.037-0.027-18.077-0.056-27.114-0.083c-0.915,0.027-1.83,0.056-2.745,0.083
	c-2.335,0-10.559-0.448-11.811,0.335c-0.244,0.984-0.401,7.429,0.167,7.855c0.742,0.559,3.367,0.167,4.491,0.167
	c3.775,0,8.548-0.596,11.894,0.251c1.238,1.85,0.582,9.03,0.582,12.118v31.256c0,1.904-0.384,11.141,0.167,12.034
	c0.373,0.606,2.452,0.732,3.493,0.585c3.382-0.027,6.765-0.056,10.147-0.083c2.398,0,7.229,0.688,9.066-0.084
	c1.182-0.566,1.199-2.196,1.664-3.51c0.942-2.662,1.955-5.85,3.161-8.357c2.138-0.746,5.329,0.123,7.818-0.251
	c1.585-0.237,4.204-0.249,5.656,0.084c1.986,2.517,2.949,6.88,4.242,9.945c0.222,0.612,0.444,1.226,0.666,1.839
	c1.227,1.061,4.222,0.024,6.155,0.334c0.503,0.08,2.013,0.122,3.413,0.078c1.344-0.043,2.588-0.165,2.742-0.412
	C86.274,73.524,85.074,71.604,84.825,70.958z M66.277,57.085c-1.407,0.363-8.243,0.624-8.899-0.335
	c-0.544-0.667,0.147-2.376,0.416-3.259c0.43-1.414,1.298-3.196,1.747-4.597c0.558-1.742,0.756-3.603,1.663-5.015h0.499
	c1.857,1.729,3.096,6.935,4.159,9.527C66.336,54.566,66.963,56.081,66.277,57.085z"/>
<path fill="#E87427" d="M114.984,56.741c1.726-1.127,3.5-1.761,5.014-2.807c0.686-0.474,1.324-1.023,1.871-1.756
	c3.13-4.194,2.728-10.545-0.672-14.108c-0.384-0.403-0.786-0.788-1.199-1.161c-1.667-1.506-3.592-2.746-6.021-3.485
	c-2.353-0.717-5.053,0.081-7.808-0.338c-5.681-0.028-11.363-0.057-17.043-0.085c-0.168,0.057-0.336,0.112-0.503,0.169
	c-0.539,0.351-0.719,8.681-0.504,10.476c0.028,7.659,0.056,15.32,0.084,22.979c-0.34,2.276-0.214,5.619,0.084,7.772
	c0.955,0.65,9.252,0.794,10.915,0.338c0.167-0.141,0.335-0.281,0.503-0.422c0.485-2.593,0.171-6.021,0.084-8.871
	c-0.189-6.189,0.084-11.608,0.084-17.741c0-1.559-0.275-9.174,0.336-9.631c0.753-0.564,3.396-0.169,4.534-0.169
	c4.211,0,8.245,3.925,7.388,8.786c-0.644,3.652-2.558,5.795-6.045,6.59c-1.567,0.112-3.135,0.225-4.702,0.338
	c-0.056,0.112-0.112,0.225-0.168,0.338c-0.267,1.195,3.198,6.973,3.862,8.279c1.42,2.793,2.895,5.708,4.114,8.532
	c0.513,1.188,1.051,3.151,2.099,3.802c0.589,0.366,5.264,0.405,8.708,0.307c1.685-0.048,3.079-0.129,3.549-0.222
	c0.63-1.19-1.375-3.668-2.015-4.646c-0.512-0.93-1.023-1.86-1.535-2.791c-1.083-1.97-2.167-3.94-3.251-5.911
	C116,60.13,114.475,58.539,114.984,56.741z"/>
<path fill="#E87427" d="M169.822,43.188c0-2.449,0.548-8.453-0.337-9.865c-3.544-0.644-8.066-0.11-11.696-0.169
	c-0.953,0.028-1.906,0.057-2.86,0.084c-8.644-0.025-17.287-0.051-25.931-0.077c-0.752-0.002-1.505-0.004-2.257-0.007
	c-0.705,0.264-1.176,0.077-1.599,0.59c-0.248,1.271-0.185,3.479,0.252,4.386c0.728,0.247,2.084,0.276,3.603,0.269
	c3.129-0.015,6.95-0.184,7.42,1.08c0.027,8.77,0.057,17.54,0.084,26.31c0,1.81-0.384,8.126,0.505,8.77
	c0.772,0.693,9.461,0.458,10.687,0.085c0.933-1.619,0.42-6.946,0.42-9.444V47.826c0-2.808-0.35-6.523,0.336-8.771
	c1.198-0.821,7.287-0.949,9.172-0.421c1.137,1.741,0.559,5.785,0.505,8.264c0.028,6.184,0.056,12.368,0.085,18.552
	c0,2.155-0.601,8.418,0.504,9.359H169.4c0.894-1.374,0.525-6.771,0.506-9.191C169.878,58.143,169.85,50.664,169.822,43.188z"/>
<path fill="#E87427" d="M207.81,43.054c0-2.435,0.526-8.275-0.415-9.771c-1.302-0.309-3.754-0.311-5.057,0
	c-0.638,1.186-0.331,3.82-0.331,5.56c0,4.205,0.637,10.332-0.249,13.982c-0.139,0.084-0.275,0.168-0.414,0.253
	c-1.311-0.792-2.067-2.905-2.901-4.212c-3.398-5.138-6.798-10.276-10.196-15.414c-1.084-0.755-9.944-0.334-12.186-0.337
	c-0.193,0.056-0.387,0.111-0.58,0.168c-0.836,1.562-0.332,6.845-0.332,9.182v22.489c0,2.553-0.52,8.244,0.498,9.771
	c1.326,0.256,3.693,0.221,4.891-0.085c0.777-1.376,0.414-4.506,0.414-6.569V52.572c0-1.491-0.354-6.279,0.249-7.075l0.331-0.337
	c2.465,1.877,4.09,5.377,5.721,8.086c3.205,4.829,6.41,9.659,9.615,14.488c2.35,3.732,3.311,8.643,10.527,6.906
	c1.045-1.839,0.415-6.472,0.415-9.097V43.054z"/>
<path fill="#E87427" d="M225.724,68.622c-0.623-2.582-0.165-6.387-0.165-9.296c0-1.243-0.23-2.688,0.658-3.042
	c2.845-1.135,10.576,1.006,12.756-0.338c0.822-0.613,0.482-4.289,0.164-5.239c-2.537-0.667-11.844,0.573-13.248-0.507
	c-0.693-0.532-0.33-5.788-0.33-7.183c0-1.757-0.105-3.411,0.576-4.395c2.715-0.668,6.729-0.254,9.875-0.254
	c1.014,0,3.106,0.315,3.785-0.169c0.447-0.319,0.407-1.614,0.412-2.366c0.004-0.845,0.072-1.846-0.248-2.366
	c-0.469-0.634-4.871-0.447-6.336-0.422h-17.856c-0.438,0.084-0.878,0.169-1.317,0.253c-0.762,0.547-0.328,4.157-0.328,5.408v13.437
	v16.141c0,1.283-0.321,5.324,0.164,6.084c0.646,1.011,4.611,0.507,6.172,0.507h14.318c1.983,0,4.773,0.316,6.008-0.507
	c0.311-1.246,0.31-3.729-0.165-4.732C236.982,68.354,228.48,70.656,225.724,68.622z"/>
</svg>
